<svg version="1.1" id="レイヤー_1" xmlns="http://www.w3.org/2000/svg" x="0" y="0" width="391.724" height="55.276" viewBox="0 0 391.724 55.276" xml:space="preserve"><style>.st0{fill:#d01120}.st1{fill:#fff}</style><path d="M111.606 45.004c-2.595-1.572-8.838-5.841-11.357-8.152h5.257a3.091 3.091 0 003.093-3.083V22.845a3.098 3.098 0 00-3.093-3.085H94.532v-2.558h15.423c1.097 0 2.212-.63 2.212-1.702v-1.902c0-1.071-1.115-1.696-2.212-1.696H94.532v-1.155c0-1.321-.924-2.641-2.253-2.641h-2.674c-1.344 0-2.268 1.302-2.268 2.641v1.155H71.8c-1.107 0-2.217.625-2.217 1.696V15.5c0 1.072 1.109 1.702 2.217 1.702h15.537v2.558h-10.95a3.093 3.093 0 00-3.089 3.085v10.923a3.086 3.086 0 003.089 3.083h5.196c-2.502 2.341-8.988 6.999-11.415 8.216-.79.406-.925 1.511-.526 2.278l1.432 2.301c.525.835 1.948.843 3.007.338 3.378-1.631 10.489-6.943 13.257-10.224v7.594c0 1.465.952 2.849 2.375 2.849h2.461c1.415 0 2.359-1.359 2.359-2.849v-7.467c2.824 3.259 9.955 8.17 13.262 9.935 1.046.551 2.496.66 3.022-.175l1.445-2.301c.383-.735.141-1.852-.656-2.342zM94.532 32.715V30.19h7.367v2.524h-7.367zm7.367-8.277v2.677h-7.367v-2.677h7.367zm-14.562 0v2.677H79.99v-2.677h7.347zM79.99 30.19h7.347v2.524H79.99V30.19zm125.258 14.814c-2.595-1.572-8.845-5.841-11.362-8.152h5.262a3.084 3.084 0 003.085-3.083V22.845a3.092 3.092 0 00-3.085-3.085h-10.974v-2.558h15.418c1.102 0 2.217-.63 2.217-1.702v-1.902c0-1.071-1.115-1.696-2.217-1.696h-15.418v-1.155c0-1.321-.924-2.641-2.26-2.641h-2.674c-1.344 0-2.26 1.302-2.26 2.641v1.155h-15.544c-1.095 0-2.212.625-2.212 1.696V15.5c0 1.072 1.117 1.702 2.212 1.702h15.544v2.558h-10.958a3.098 3.098 0 00-3.086 3.085v10.923a3.09 3.09 0 003.086 3.083h5.206c-2.512 2.341-8.991 6.999-11.421 8.216-.79.406-.925 1.511-.534 2.278l1.443 2.301c.525.835 1.943.843 3.009.338 3.37-1.631 10.489-6.943 13.254-10.224v7.594c0 1.465.945 2.849 2.367 2.849h2.461c1.422 0 2.367-1.359 2.367-2.849v-7.467c2.816 3.259 9.955 8.17 13.257 9.935 1.043.551 2.501.66 3.027-.175l1.437-2.301c.385-.735.151-1.852-.647-2.342zm-17.073-12.289V30.19h7.36v2.524h-7.36zm7.36-8.277v2.677h-7.36v-2.677h7.36zm-14.555 0v2.677h-7.347v-2.677h7.347zm-7.347 5.752h7.347v2.524h-7.347V30.19zm-55.03-12.805h38.165c1.095 0 2.205-.63 2.205-1.706v-2.08c0-1.071-1.11-1.696-2.205-1.696h-15.374v-1.155c0-1.366-.653-2.641-2.204-2.641h-2.793c-1.402 0-2.205 1.209-2.205 2.641v1.155h-15.588c-1.103 0-2.212.625-2.212 1.696v2.08c-.001 1.076 1.108 1.706 2.211 1.706zm10.267 21.699l-2.529-2.151c-.706-.566-1.979-.505-2.568.262-1.481 1.897-5.503 6.484-7.241 7.98-.668.577-.681 1.864-.056 2.496l2.532 2.247c.79.627 1.849.366 2.595-.236 1.542-1.229 6.329-6.801 7.296-8.581.334-.61.527-1.57-.029-2.017zm30.186 6.075c-2.204-2.2-6.029-6.179-7.408-7.832-.633-.731-2.134-.891-2.86-.277l-2.197 2.065c-.541.46-.47 1.542-.056 2.115 1.549 2.133 5.858 7.004 7.956 8.584a2.113 2.113 0 002.616-.074l1.943-2.049c.704-.74.669-1.877.006-2.532z"/><path d="M146.627 36.1c.854-.483 1.722-1.052 2.083-1.288.968-.591 2.077-.498 3.009-.02.597.31 1.15.719 1.644 1.166 1.137-.381 1.968-1.442 1.968-2.697V22.622a2.856 2.856 0 00-2.852-2.845h-29.523a2.855 2.855 0 00-2.844 2.845V33.26a2.85 2.85 0 002.197 2.76c.548-.429.98-.787 1.359-1.084.81-.635 2.133-.698 3.157-.125.554.315 1.585.879 2.296 1.288h5.071v8.2h-4.04c-.93 0-1.613.635-1.613 1.602v2.659c0 1.071.774 1.658 1.735 1.658h6.798c2.382 0 4.323-1.587 4.323-4.025V36.1h5.232zm-19.875-5.021v-6.278h21.929v6.278h-21.929zm100.228-16.2h21.317c.983 0 1.778-.805 1.778-1.786v-1.358c0-.98-.795-1.78-1.778-1.78H226.98c-.975 0-1.778.8-1.778 1.78v1.358a1.79 1.79 0 001.778 1.786zm24.078 2.263h-26.694c-.975 0-1.778.797-1.778 1.778v1.224c0 .975.803 1.778 1.778 1.778h26.694c.98 0 1.778-.803 1.778-1.778V18.92a1.78 1.78 0 00-1.778-1.778zm-24.276 11.271h21.823c.846 0 1.549-.696 1.549-1.539v-1.28c0-.848-.703-1.547-1.549-1.547h-21.823c-.848 0-1.544.699-1.544 1.547v1.28a1.55 1.55 0 001.544 1.539zm-1.544 4.911c0 .854.696 1.539 1.544 1.539h21.823c.846 0 1.549-.686 1.549-1.539v-1.277c0-.843-.703-1.539-1.549-1.539h-21.823a1.55 1.55 0 00-1.544 1.539v1.277zm23.024 3.665h-21.048a2.862 2.862 0 00-2.85 2.86v6.964a2.853 2.853 0 002.85 2.841h21.048a2.852 2.852 0 002.844-2.841v-6.964c0-1.573-1.28-2.86-2.844-2.86zm-3.512 8.431h-14.021v-4.19h14.021v4.19z"/><path d="M219.991 20.641v-2.219c0-1.445 1.138-2.944 2.652-3.294.597-1.26 1.074-2.344 1.336-3.124.371-1.069.335-2.296-.66-2.703l-2.646-1.196c-1.151-.496-2.616.038-3.114 1.257-2.041 4.987-6.763 13.432-9.224 17.927-.574 1.057-.36 2.504.498 2.997l2.37 1.27c.996.477 2.141.117 2.639-.622.226-.345.498-.78.782-1.242v17.661c0 1.465.945 2.849 2.367 2.849h2.469c1.414 0 2.366-1.359 2.366-2.849v-23.68c-1.04-.553-1.835-1.637-1.835-3.032zM293.04 9.919h-30.399c-2.09 0-3.591 1.656-3.591 3.665v19.255c0 4.912-.229 7.764-2.304 11.791-.62 1.201-.371 2.649.447 3.139.704.419 1.892 1.156 2.481 1.58.797.562 2.263.43 3.002-.564 2.082-2.803 3.086-7.39 3.449-11.689h9.153v9.526c0 1.648.668 2.852 2.367 2.852h1.899c1.691 0 2.367-1.204 2.367-2.852v-9.526h9.152v6.369h-3.365c-1.323 0-2.289 1.133-2.289 2.189v1.597c0 1.32 1.016 2.25 2.133 2.25h5.618c2.382 0 4.322-1.707 4.322-4.147V14.249c.002-2.339-1.862-4.33-4.442-4.33zm-1.976 11.583h-9.152v-5.288l9.152-.015v5.303zm-15.786-5.28v5.28h-8.967v-5.269l8.967-.011zm-8.967 15.85v-5.546h8.967v5.546h-8.967zm15.601 0v-5.546h9.152v5.546h-9.152zM390.175 42.49h-11.847v-2.123h8.505a2.622 2.622 0 002.611-2.616v-8.859a2.619 2.619 0 00-2.611-2.613h-8.505v-2.138h10.311c.84 0 1.536-.673 1.536-1.506v-1.247c0-.818-.696-1.501-1.536-1.501h-10.311v-2.24h11.116c1.102 0 2.21-.82 2.21-2.021v-1.882c0-1.201-1.107-2.024-2.21-2.024h-13.186v-1.364c0-1.125-.988-2.25-2.43-2.25h-2.88c-1.45 0-2.445 1.105-2.445 2.25v1.364h-12.949c-1.75 0-3.109 1.303-3.109 3.215v16.899c0 5.658-.541 9.859-2.624 14.524-.513 1.163-.284 2.379.661 2.831l2.412 1.013c1.209.475 2.317.262 2.921-.854.355-.645.676-1.298.955-1.968-.45-.429-.683-1.016-.683-1.907v-1.546c0-1.791 1.003-2.982 2.502-3.472.351-2.598.457-5.316.457-8.124V17.647h13.026v2.24h-10.58c-.854 0-1.544.683-1.544 1.501v1.247c0 .833.691 1.506 1.544 1.506h10.58v2.138h-8.838a2.616 2.616 0 00-2.603 2.613v8.859c0 1.43 1.166 2.616 2.603 2.616h8.838v2.123h-11.99c-.854 0-1.549.708-1.549 1.572v1.293c0 .853.696 1.551 1.549 1.551h11.99v.897c0 1.237.754 2.405 2.176 2.405h1.884c1.423 0 2.197-1.15 2.197-2.405v-.897h11.847c.853 0 1.549-.698 1.549-1.551v-1.293c-.001-.864-.697-1.572-1.55-1.572zm-11.847-5.537v-2.161h4.985v2.161h-4.985zm4.985-7.372v2.164h-4.985v-2.164h4.985zm-11.243 0v2.164h-5.503v-2.164h5.503zm-5.503 7.372v-2.161h5.503v2.161h-5.503zm-20.566-15.728c-5.694-3.578-12.136-7.702-16.888-11.621-1.102-.924-2.573-1.498-4.414-1.498-2.057 0-3.342.436-4.622 1.427-4.83 3.766-12.084 8.64-17.097 11.799-1.031.65-1.336 1.903-.767 2.979l1.686 2.633c.561.868 2.047.96 2.992.384a210.73 210.73 0 004.8-3.025c.272.655.904 1.11 1.651 1.11h7.814v4.119h-13.773a2.255 2.255 0 00-2.247 2.258v1.455a2.254 2.254 0 002.247 2.255h2.253c.726-.868 2.311-1.155 3.761-1.559 1.907-.533 3.195-.088 4.175 1.559h3.583v8.109h-2.374c-.727-1.757-1.778-5.081-2.212-6.364a2.047 2.047 0 00-2.639-1.262l-2.359.785c-1.019.381-1.237 1.516-.996 2.486a70.648 70.648 0 001.328 4.355h-5.361c-1.102 0-2.204.739-2.204 1.913v1.942c0 1.176 1.102 1.913 2.204 1.913h36.294c1.102 0 2.204-.736 2.204-1.913v-1.942c0-1.173-1.102-1.913-2.204-1.913h-5.382c.455-1.209 1.13-3.154 1.399-4.21.272-1.072-.035-2.263-1.186-2.702l-2.417-.714c-1.232-.406-2.355.285-2.73 1.366-.427 1.272-1.394 4.51-2.105 6.26h-2.149V35.5h3.429c1.008-1.491 2.118-2.113 4.144-1.58 1.458.394 3.045.661 4.096 1.58h2.034a2.267 2.267 0 002.26-2.255V31.79a2.268 2.268 0 00-2.26-2.258h-13.703v-4.119h7.702a1.78 1.78 0 001.621-1.056c1.813 1.155 3.535 2.189 4.962 2.971 1.168.64 2.192.533 2.796-.414l1.5-2.484c.606-1.071.386-2.437-.846-3.205zm-27.994-1.145c2.73-1.907 5.211-3.741 6.713-5.064 1.493 1.369 3.868 3.187 6.491 5.064h-13.204z"/><path class="st0" d="M22.279 42.934h1.312v6.019h-1.312z"/><path class="st0" d="M62.095 20.36c-1.836-5.476-5.487-10.462-10.153-13.857-.133-.093-.267-.194-.396-.29A34.449 34.449 0 0032.266.006c-.198-.004-.399-.004-.598-.004A33.858 33.858 0 007.933 9.347a24.563 24.563 0 00-1.541 1.588C1.58 16.346-.724 23.825.201 31.003c1.171 7.173 5.411 13.899 11.376 18.054.135.087.263.18.396.27v-12.99h1.37v5.345h3l-.006 8.521H14.98v-7.27h-1.637v7.297a35.172 35.172 0 006.866 3.199c9.56 3.25 20.411 2.17 29.127-2.911.176-.11.361-.217.531-.315v-7.27h-1.651v7.27H46.84v-8.521h4.415v7.616a6.662 6.662 0 002.623-2.669c.195-.416.336-.858.424-1.313a5.428 5.428 0 00-1.141-4.414 5.448 5.448 0 00-4.025-1.971H41.56a13.707 13.707 0 01-2.273-.125v2.876h3.001v8.521h-1.363v-7.27h-1.638l-.005 7.27H37.91V38.542c-5.943-1.464-10.35-6.828-10.35-13.222 0-7.521 6.097-13.617 13.617-13.617S54.794 17.8 54.794 25.32c0 4.431-2.117 8.367-5.394 10.854h5.949a8.53 8.53 0 004.908-2.063 8.568 8.568 0 002.925-6.416 26.014 26.014 0 00-1.087-7.335zM19.368 50.204h-1.457v-8.521h1.457v8.521zm0-9.33h-1.457V39.47h1.457v1.404zm24.477-1.404h1.453v1.404h-1.453V39.47zm0 2.212h1.453v8.521h-1.453v-8.521zM32.32 48.953h2.676v-2.381H32.32v-4.89h4.069v1.251h-2.705v2.372h2.715v4.898H32.31l.01-1.25zm-7.365 4.681h-4.037V52.26h2.672v-2.056h-2.672v-8.521h4.037v11.951zm5.833-11.952v8.521h-4.282v-4.898l2.892-.012v-2.36H26.5v-1.251h4.288z"/><path class="st0" d="M27.872 46.572h1.526v2.381h-1.526z"/><path class="st1" d="M17.911 41.682h1.457v8.521h-1.457zm0-2.212h1.457v1.404h-1.457zm3.007 2.212v8.521h2.672v2.056h-2.672v1.374h4.037V41.682h-4.037zm2.672 7.271h-1.312v-6.019h1.312v6.019zm20.255-9.483h1.453v1.404h-1.453zm0 2.212h1.453v8.521h-1.453zM32.32 48.953h2.676v-2.381H32.32v-4.89h4.069v1.252h-2.705v2.371h2.715v4.899h-4.088z"/><path class="st1" d="M41.179 38.937c7.521 0 13.617-6.097 13.617-13.617 0-7.521-6.097-13.617-13.617-13.617S27.561 17.799 27.561 25.32c0 6.394 4.408 11.758 10.35 13.222v11.662h1.372l.005-7.27h1.638v7.27h1.363v-8.521h-3.001v-2.876c.618.085 1.249.13 1.891.13zM26.5 41.682v1.251h2.898v2.36l-2.892.012v4.898h4.282v-8.521H26.5zm2.899 7.271h-1.526v-2.381h1.526v2.381zm-14.42-6.019v7.27h1.357l.006-8.521h-3v-5.345h-1.37v12.991c.378.259.695.501 1.37.903v-7.297h1.637z"/><path class="st1" d="M46.84 41.682v8.521h1.149l.227-.044v-7.226h1.651v7.27a30.967 30.967 0 001.389-.906v-7.616H46.84z"/></svg>