<svg id="hlogo" data-name="hlogo" xmlns="http://www.w3.org/2000/svg" viewBox="0 0 411.224 72.526" width="411.224" height="72.526">
  <defs>
    <style>
      .cls-1 {
        fill: #bde2e4;
      }

      .cls-2 {
        isolation: isolate;
      }
    </style>
  </defs>
  <g id="logomark" data-name="logomark">
    <path class="cls-1" d="M10.022,33.442a.307.307,0,0,1,.029.064.617.617,0,0,1,.017.253c-.056.573-.453,3.064,1.3,3.439a23.145,23.145,0,0,0,6.724.222c1.73-.283,6.558-1.589,6.558-1.589a19.442,19.442,0,0,1,.454-3.064,2.764,2.764,0,0,0,.4-1.055,2.8,2.8,0,0,1,.979-1.328c.066-.009.134-.019.19-.031v-.019c.762-5.595,5.9-6.583,5.967-14.691a11.513,11.513,0,0,0-4.867-9.368,92.989,92.989,0,0,0-9.4-6.266L18.363,0A93.142,93.142,0,0,0,8.938,6.276a11.52,11.52,0,0,0-4.867,9.368C4.137,25.056,11.057,24.872,10.022,33.442ZM24.968,58.405v-.356a10.636,10.636,0,0,0-.148-1.984v-.013a.116.116,0,0,1-.021.016,4.047,4.047,0,0,1-2.062.759c-.7-.06-.771-.349-1.141-.318a.821.821,0,0,1-.928-.641c-.148-.537-.592-.794-.911-1.131a7.789,7.789,0,0,1-1.023-1.709c-.192-.455-.718-.716-.663-1.249s.588-2.036,1.534-2.133.79-.432,1.08-.5,1.19-.051,1.479-.124a3.964,3.964,0,0,1,1.706.66,14.724,14.724,0,0,0,.325-2.9c0-1.478.2-6.149.1-6.89s.238-1.225-.548-.959A32.331,32.331,0,0,1,19.4,40.417a24.421,24.421,0,0,1-6.861.431,3.922,3.922,0,0,1-2.034-.711,10.624,10.624,0,0,1-1.951-2.318h0c-.018.03-.029.051-.029.051C5.725,42.708,0,46.558,0,56.017A13.268,13.268,0,0,0,6,67.417c3.421,2.164,7.05,2.69,11.428,2.69h1.842c1.217,0,2.375-.042,3.487-.148l.016-.041c.188-.528.423-1.25.6-1.809a35.9,35.9,0,0,0,1.067-4.422,34.9,34.9,0,0,0,.5-4.337C24.962,59.028,24.968,58.718,24.968,58.405Zm-3.944-7.646a1.732,1.732,0,0,0-1.373.672c-.285.3-.691.6-.394,1s.8,1.1,1.1,1.169a5.525,5.525,0,0,0,.859.116,1.355,1.355,0,0,0,1.118-.4,2.37,2.37,0,0,1,.5-.448c.192-.272.448-.634.119-.95s-1.127-1.2-1.927-1.159Zm7.108-12.965c-.716.3-1,.4-1,.4s0,4.511.052,7.221.073,6.443-.24,7.46c-.027.087-.054.17-.082.251h0a20.79,20.79,0,0,1,.773,5.3c0,.211-.008.422-.009.635a22.762,22.762,0,0,1-.767,5.8A20.33,20.33,0,0,1,25.585,68.3c-.094.189-.235.458-.336.634-.141.244-.279.481-.434.725l.056-.01A16.285,16.285,0,0,0,30.7,67.4,13.265,13.265,0,0,0,36.689,56c.005-9.5-5.766-13.336-8.554-18.206Z"/>
    <path d="M31.059,32.681c-.194-.375-.651-.182-.977-.274s-.434-.625-.552-.875-.729-.307-.932-.313-.434-.709-.471-.874-.813-.267-1.021-.149a1.311,1.311,0,0,1-.382.145,2.349,2.349,0,0,1-.246.043,2.8,2.8,0,0,0-.979,1.328,2.749,2.749,0,0,1-.4,1.055,19.44,19.44,0,0,0-.453,3.064s-4.827,1.306-6.558,1.589a23.145,23.145,0,0,1-6.724-.222c-1.753-.375-1.357-2.867-1.3-3.439a.617.617,0,0,0-.017-.253c-.087-.265-.431-.13-.76.107a2.93,2.93,0,0,0-1.05,2.474c.233.5-.15.982.245,1.606.021.036.047.076.076.118a10.619,10.619,0,0,0,1.951,2.318,3.925,3.925,0,0,0,2.033.711,24.391,24.391,0,0,0,6.862-.431,32.352,32.352,0,0,0,4.346-1.484c.788-.266.447.218.55.959s-.1,5.412-.1,6.89a14.8,14.8,0,0,1-.325,2.9,3.968,3.968,0,0,0-1.706-.66c-.29.074-1.19.049-1.48.124s-.134.406-1.081.5-1.479,1.6-1.534,2.133.471.794.662,1.249a7.852,7.852,0,0,0,1.023,1.709c.319.337.764.594.911,1.131a.822.822,0,0,0,.929.641c.37-.032.443.258,1.141.318A4.053,4.053,0,0,0,24.8,56.06l.021-.016v.013a10.814,10.814,0,0,1,.147,1.984V58.4c0,.313-.008.626-.028.938a34.525,34.525,0,0,1-.5,4.337,35.714,35.714,0,0,1-1.066,4.422c-.174.559-.409,1.281-.6,1.809-.148.418-.291.826-.458,1.276-.15.4-.389,1.073-.464,1.328v.018h.011a5.467,5.467,0,0,0,1.582-1.166,10.29,10.29,0,0,0,1.358-1.672c.162-.254.3-.5.45-.752.1-.177.243-.445.336-.634a20.327,20.327,0,0,0,1.273-3.438,22.763,22.763,0,0,0,.768-5.8c0-.213.009-.424.009-.635a20.8,20.8,0,0,0-.773-5.3h0c.028-.081.055-.164.082-.251.313-1.017.292-4.751.241-7.46s-.053-7.221-.053-7.221.285-.106,1.016-.41c.354-.147.811-.34,1.392-.592a3.592,3.592,0,0,0,2.245-2.606C32.01,33.936,31.255,33.054,31.059,32.681ZM22.845,52.87a2.4,2.4,0,0,0-.5.448,1.354,1.354,0,0,1-1.118.4,5.525,5.525,0,0,1-.859-.116c-.307-.07-.81-.761-1.1-1.169s.109-.7.394-1a1.732,1.732,0,0,1,1.373-.672c.8-.04,1.608.844,1.939,1.161s.064.676-.129.947Zm6.114-18.277a10.714,10.714,0,0,0-1.327.457c-.3.14-.485.128-.6.039-.211-.158-.2-.561-.2-.8v-.08c.021-.42.117-1.349.131-1.887a1.157,1.157,0,0,1,.6-1.008c.166-.036.768.472,1.129.687s.586,1.123.856,1.787-.223.691-.594.8Z"/>
  </g>
  <g id="jp_text" class="cls-2">
      <path d="M78.611,25.8l-.055-2.053c-1.692.145-3.385.378-4.429.54-1.3.216-2.268.433-2.827.523-.036,0-.072.017-.108.017a.517.517,0,0,1-.5-.521.569.569,0,0,1,.522-.541c.576-.09,4.358-.666,7.328-.918v-.7c-.018-1.153-.053-1.261-.072-1.837v-.018a.505.505,0,0,1,.523-.54c.576,0,.576.576.576.738,0,.432-.036,1.116-.055,1.531-.018.251-.018.5-.018.755.685-.053,1.3-.089,1.8-.089.45-.018.846-.018,1.3-.018.433,0,.919,0,1.549.018a.591.591,0,0,1,.666.54.529.529,0,0,1-.594.5h-.091c-.431-.036-1.259-.09-3.348-.09-.414,0-.846.018-1.3.036,0,.666.017,1.387.035,2.089,0,.3.036.756.055,1.224A3.6,3.6,0,0,1,80.122,29c0,2.845-2.61,5.815-3.438,5.815a.471.471,0,0,1-.5-.45.684.684,0,0,1,.342-.54,7.1,7.1,0,0,0,2.629-4.123,2.237,2.237,0,0,1-1.784.9,2.337,2.337,0,0,1,.271-4.664,2.215,2.215,0,0,1,.99.2Zm0,1.422a1.438,1.438,0,0,0-1.027-.432,1.4,1.4,0,0,0-1.459,1.44,1.338,1.338,0,0,0,1.3,1.458c.936,0,1.386-.918,1.386-1.763a2.25,2.25,0,0,0-.071-.576Z"/>
      <path d="M93.388,28.283c-.648,1.315-1.927,3.854-3.98,3.854A1.4,1.4,0,0,1,87.914,30.7c0-1.764,2.359-2.953,4.9-3.222l.2-.379c.684-1.441,1.855-3.637,2.358-4.771a.459.459,0,0,0,.054-.18c0-.037-.017-.073-.09-.073a.251.251,0,0,0-.107.019,13.8,13.8,0,0,1-2.827.468c-.378,0-.54-.216-.54-.451a.5.5,0,0,1,.486-.486,23.01,23.01,0,0,0,3.024-.449,1.623,1.623,0,0,1,.4-.055c.5,0,.792.271.792.685a1.423,1.423,0,0,1-.216.683C95.458,24,94.558,25.852,93.8,27.419a12.653,12.653,0,0,1,5.06.973,4.746,4.746,0,0,0,.162-1.206,2.884,2.884,0,0,0-.378-1.5.346.346,0,0,1-.055-.179A.481.481,0,0,1,99.1,25.1c.594,0,.9,1.17.9,2.07a5.759,5.759,0,0,1-.252,1.6,14.318,14.318,0,0,1,2.845,1.748.7.7,0,0,1,.288.521.542.542,0,0,1-.521.559.6.6,0,0,1-.414-.181A11.568,11.568,0,0,0,99.4,29.67c-1.135,2.557-3.53,4.123-4.016,4.123a.4.4,0,0,1-.432-.4.6.6,0,0,1,.342-.5,8.207,8.207,0,0,0,3.241-3.62,12.611,12.611,0,0,0-4.609-.99Zm-4.537,2.3a.637.637,0,0,0,.7.612c1.351,0,2.467-2.106,2.826-2.845C90.507,28.644,88.851,29.58,88.851,30.588Z"/>
      <path d="M110.019,24.305a4.562,4.562,0,0,1-1.674-.288.534.534,0,0,1-.307-.487.406.406,0,0,1,.414-.45.7.7,0,0,1,.235.054,4.709,4.709,0,0,0,1.584.252,6.719,6.719,0,0,0,1.459-.162,6.114,6.114,0,0,0,.126-1.206,8.412,8.412,0,0,0-.073-1.027v-.072a.444.444,0,0,1,.487-.45c.45,0,.594.306.594,1.171a6.449,6.449,0,0,1-.126,1.3,7.091,7.091,0,0,0,1.476-.72.413.413,0,0,1,.252-.072.526.526,0,0,1,.505.486c0,.288-.271.666-2.485,1.3a70.221,70.221,0,0,1-3.439,9.381.643.643,0,0,1-.576.4.473.473,0,0,1-.486-.486,1.023,1.023,0,0,1,.107-.414,57.017,57.017,0,0,0,3.386-8.643A8.178,8.178,0,0,1,110.019,24.305ZM118,33.613c-2.539,0-4.069-1.135-4.069-1.747a.551.551,0,0,1,.523-.54.5.5,0,0,1,.377.2,3.305,3.305,0,0,0,2.773,1.009,13.344,13.344,0,0,0,1.927-.162h.108a.512.512,0,0,1,.54.5C120.174,33.163,120.12,33.613,118,33.613ZM119.85,26.1a7.283,7.283,0,0,0-2.484-.45,4.436,4.436,0,0,0-1.585.253.523.523,0,0,1-.163.035.421.421,0,0,1-.414-.431c0-.721,1.855-.756,2.341-.756a7.931,7.931,0,0,1,2.593.431.482.482,0,0,1,.342.468.451.451,0,0,1-.432.487A.728.728,0,0,1,119.85,26.1Zm-.216-3.043a5.622,5.622,0,0,0-1.747-1.278.333.333,0,0,1-.233-.306.424.424,0,0,1,.45-.377c.395,0,2.286,1.007,2.286,1.673a.454.454,0,0,1-.432.451A.407.407,0,0,1,119.634,23.061Zm1.477-1.313a5.815,5.815,0,0,0-1.784-1.261.352.352,0,0,1-.233-.306.425.425,0,0,1,.45-.4c.252,0,2.341.954,2.341,1.656a.489.489,0,0,1-.469.468A.4.4,0,0,1,121.111,21.748Z"/>
      <path d="M133.366,32.263a.312.312,0,0,1,.306.341.371.371,0,0,1-.342.378c-.792.019-1.656.037-2.52.037-.685,0-1.368-.018-2-.037-.864-.035-1.494-.467-1.494-1.313v-.541c0-1.206.036-2.683.09-3.618a1.2,1.2,0,0,1,.018-.253c-.829.936-1.045.99-1.207.99a.408.408,0,0,1-.252-.756,11.335,11.335,0,0,0,2.881-3.457H126.6a.37.37,0,1,1,0-.738h2.629a17.225,17.225,0,0,0,.757-1.837h-1.873c-.792,1.152-1.008,1.314-1.243,1.314a.418.418,0,0,1-.431-.395.427.427,0,0,1,.107-.252,8.915,8.915,0,0,0,1.765-2.737.366.366,0,0,1,.36-.216c.234,0,.487.162.487.378a.564.564,0,0,1-.037.144,9.64,9.64,0,0,1-.54,1.027l4.465-.019a.364.364,0,0,1,.4.378.373.373,0,0,1-.4.378h-2.178c-.235.631-.487,1.243-.775,1.837h3.26a.355.355,0,0,1,.378.36.358.358,0,0,1-.378.378h-3.638a15.518,15.518,0,0,1-1.386,2.161,1.585,1.585,0,0,1,.522-.091h1.621a12.706,12.706,0,0,0,.5-1.349.451.451,0,0,1,.432-.271c.234,0,.468.145.468.361,0,.126-.018.143-.576,1.259h2.124a.311.311,0,0,1,.324.325.345.345,0,0,1-.341.36c-.811-.018-1.513-.018-2.179-.018v1.35h1.818a.324.324,0,0,1,0,.648h-1.818V30.12h1.818a.325.325,0,0,1,0,.649h-1.818v1.547c.7,0,1.44-.017,2.125-.053Zm-2.953-3.494h-2.268c-.018.433-.018.9-.018,1.351h2.286Zm0,2h-2.286c0,.233.018.45.018.666.036.845.63.881,2.268.881Zm0-4c-.486,0-.954.018-1.422.018a.725.725,0,0,0-.81.792c0,.162-.018.343-.018.54h2.25Zm1.729,7.94c-.036,0-.09.018-.126.018a.468.468,0,0,1-.486-.467.405.405,0,0,1,.342-.414c2.521-.379,3.835-1.459,4.1-3.89a.38.38,0,0,1,.4-.378.477.477,0,0,1,.487.45v.054C136.482,32.749,135.023,34.226,132.142,34.711Zm9.291-3.547c.234,0,.468.145.468.36v.288c0,1.927-.5,2.593-2.286,2.593-1.513,0-1.729-.666-1.729-1.638,0-.126.036-2.449.072-3.62-.558,0-1.081,0-1.675-.036a1.5,1.5,0,0,1-1.621-1.62c-.017-.99-.035-2.034-.035-3.079s.018-2.088.035-3.06c.055-1.675,1.387-1.675,2.954-1.675,1.512,0,2.844,0,2.917,1.638.053.991.072,2.017.072,3.061,0,1.026-.019,2.071-.072,3.1a1.534,1.534,0,0,1-1.639,1.637l-.054.019c-.036,1.026-.072,2.2-.072,3.06v.4c0,.756,0,.972.738.972,1.225,0,1.53-.162,1.53-1.819v-.2A.363.363,0,0,1,141.433,31.164Zm-5.96-7.832c0,.666.018,1.368.018,2.053h4.2c0-.685.017-1.387.017-2.053Zm4.214-.756c0-.379,0-.738-.019-1.062-.036-1.045-.45-1.063-2.341-1.063-1.818,0-1.836.306-1.836,2.125Zm-4.2,3.547.018,1.188c0,1.027.649,1.062,2.143,1.062,2.016,0,2.035-.107,2.035-2.25Z"/>
      <path d="M146.414,34.729a.5.5,0,0,1-.486-.54.412.412,0,0,1,.271-.414c4.176-1.3,5.292-3.961,5.455-6.536a.506.506,0,0,1,1.008.018v.054c-.27,2.827-1.566,5.87-6,7.365A.721.721,0,0,1,146.414,34.729Zm9.2-8.534c-.018,1.224-.054,3.025-.054,4.627,0,.5.018.99.018,1.441.018,1.026.486,1.224,1.926,1.224,2.2,0,2.611-.828,2.611-2.251a.448.448,0,0,1,.468-.486.541.541,0,0,1,.559.631c0,2.574-1.639,2.971-3.655,2.971-1.873,0-2.881-.325-2.881-1.963V31.236c0-1.728.017-3.781.036-5.041H151.8c-.648,0-2.881.018-5.114.035a.432.432,0,1,1,0-.864h6.429l-.019-5.671a.506.506,0,0,1,1.009,0l-.019,5.671h6.464a.432.432,0,1,1,0,.864Zm-5.276-2.269a8.221,8.221,0,0,0-2.179-2.3.373.373,0,0,1-.179-.306.528.528,0,0,1,.522-.467c.558,0,2.773,2.124,2.773,2.754a.576.576,0,0,1-.54.577A.46.46,0,0,1,150.339,23.926Zm5.528-.126a.436.436,0,0,1,.144-.323A14.961,14.961,0,0,0,158.28,20.7a.407.407,0,0,1,.378-.216.622.622,0,0,1,.594.576.481.481,0,0,1-.108.289c-.27.36-2.124,2.9-2.791,2.9A.478.478,0,0,1,155.867,23.8Z"/>
      <path d="M180.277,25.457c-1.279-.036-2.612-.072-3.962-.072v.774a8.812,8.812,0,0,1-4.753,8.12.894.894,0,0,1-.433.126.45.45,0,0,1-.468-.45.543.543,0,0,1,.325-.486,7.8,7.8,0,0,0,4.357-7.239V25.4c-1.278,0-2.539,0-3.781.036,0,1.206,0,2.395-.019,3.206a.517.517,0,0,1-.54.54.444.444,0,0,1-.486-.451V28.7c.055-.864.055-2.034.055-3.222-1.351.036-2.648.089-3.835.144H166.7c-.36,0-.522-.217-.522-.433a.5.5,0,0,1,.5-.467l3.89-.09c-.019-1.045-.055-2.035-.09-2.774v-.036a.461.461,0,0,1,.485-.486.5.5,0,0,1,.5.505c.036.7.054,1.71.071,2.772l3.8-.072c0-1.134,0-2.269-.018-2.881-.018-.54.342-.594.468-.594a.527.527,0,0,1,.522.577v2.9c1.35-.018,2.683-.036,3.943-.036.433,0,.612.217.612.45a.534.534,0,0,1-.576.5Z"/>
      <path d="M192.263,33.667a.584.584,0,0,1-.576.595.489.489,0,0,1-.5-.559v-.017c.017-1.622.108-5.06.108-7.239v-.522a28.329,28.329,0,0,1-5.87,4.627,1.112,1.112,0,0,1-.54.18.458.458,0,0,1-.486-.468.613.613,0,0,1,.342-.522,26.125,26.125,0,0,0,9.147-8.553.618.618,0,0,1,.54-.324.516.516,0,0,1,.522.487.662.662,0,0,1-.144.377c-.847,1.135-1.675,2.162-2.5,3.1-.036,1.225-.054,3.8-.054,5.979,0,1.152,0,2.2.018,2.844Z"/>
      <path d="M203.531,20.848l-.054,4.716a.556.556,0,0,1,.162-.036,13.68,13.68,0,0,1,4.771,1.621.57.57,0,0,1-.27,1.027.542.542,0,0,1-.342-.126,13.146,13.146,0,0,0-4.231-1.585.251.251,0,0,1-.108-.036v2.2c0,2,.018,3.889.035,5.06a.579.579,0,0,1-.593.647.528.528,0,0,1-.54-.576v-.036c.089-2.071.143-6.194.143-9.416,0-1.423-.017-2.665-.035-3.476v-.018a.481.481,0,0,1,.522-.486.5.5,0,0,1,.54.5Z"/>
  </g>
  <g id="en_text" data-name="en_text">
        <path d="M80.772,49.072l-2.305,1.367a3.955,3.955,0,0,0-1.233-1.465,3.282,3.282,0,0,0-3.54.281,2.081,2.081,0,0,0-.781,1.66q0,1.38,2.05,2.223l1.88.768A8,8,0,0,1,80.2,56.171a5.1,5.1,0,0,1,1.062,3.277,5.758,5.758,0,0,1-1.733,4.3,5.95,5.95,0,0,1-4.334,1.709A5.793,5.793,0,0,1,71.143,64a6.693,6.693,0,0,1-1.966-4.089l2.881-.635a4.9,4.9,0,0,0,.684,2.3,3.248,3.248,0,0,0,4.564.512c.072-.058.142-.119.209-.183a3.08,3.08,0,0,0,.879-2.258,3.126,3.126,0,0,0-.153-1.006,2.542,2.542,0,0,0-.476-.843,3.81,3.81,0,0,0-.836-.72,8.117,8.117,0,0,0-1.221-.642l-1.819-.755q-3.87-1.637-3.869-4.786a4.542,4.542,0,0,1,1.623-3.552A5.87,5.87,0,0,1,75.684,45.9,5.642,5.642,0,0,1,80.772,49.072Z"/>
        <path d="M88.167,53.222v6.824Q88.167,63,90.5,63t2.331-2.955V53.222h2.737v6.885a7.635,7.635,0,0,1-.354,2.466,4.128,4.128,0,0,1-1.184,1.672,5.77,5.77,0,0,1-7.068,0,4.211,4.211,0,0,1-1.209-1.672,6.811,6.811,0,0,1-.341-2.466V53.222Z"/>
        <path d="M100.289,53.222h2.746v1.1A5.712,5.712,0,0,1,104.39,53.2a3.3,3.3,0,0,1,1.5-.3,3.644,3.644,0,0,1,3.186,1.758,4.123,4.123,0,0,1,3.5-1.758q4.017,0,4.016,4.87v7.349h-2.759v-6.6a5.081,5.081,0,0,0-.415-2.418,1.5,1.5,0,0,0-1.4-.72,1.792,1.792,0,0,0-1.654.854,5.508,5.508,0,0,0-.519,2.746v6.141h-2.759V58.549q0-3.174-1.831-3.174a1.838,1.838,0,0,0-1.691.866,5.422,5.422,0,0,0-.531,2.734v6.141h-2.746Z"/>
        <path d="M120.9,48.278a1.793,1.793,0,0,1,1.782-1.769,1.727,1.727,0,0,1,1.27.525,1.689,1.689,0,0,1,.525,1.257,1.727,1.727,0,0,1-.525,1.269,1.69,1.69,0,0,1-1.258.525,1.793,1.793,0,0,1-1.794-1.792v-.015Zm3.162,4.944v11.89h-2.747V53.222Z"/>
        <path d="M137.554,44.5h2.759V65.112h-2.759V63.867a5.123,5.123,0,0,1-3.674,1.587,5.231,5.231,0,0,1-4.053-1.782,6.635,6.635,0,0,1-1.6-4.541,6.412,6.412,0,0,1,1.6-4.444,5.133,5.133,0,0,1,7.727-.085Zm-6.518,14.636a4.147,4.147,0,0,0,.915,2.783A3,3,0,0,0,134.319,63a3.151,3.151,0,0,0,2.466-1.051,4.517,4.517,0,0,0,0-5.518,3.107,3.107,0,0,0-2.441-1.061,3.037,3.037,0,0,0-2.368,1.074,3.963,3.963,0,0,0-.94,2.686Z"/>
        <path d="M153.794,53.222h2.759v11.89h-2.759V63.867a5.274,5.274,0,0,1-7.459.086c-.093-.09-.182-.184-.268-.281a6.635,6.635,0,0,1-1.6-4.541,6.426,6.426,0,0,1,1.6-4.456,5.156,5.156,0,0,1,4-1.782A5.057,5.057,0,0,1,153.79,54.6Zm-6.518,5.909a4.147,4.147,0,0,0,.915,2.783A3,3,0,0,0,150.56,63a3.149,3.149,0,0,0,2.465-1.051,4.517,4.517,0,0,0,0-5.518,3.107,3.107,0,0,0-2.441-1.061,3.038,3.038,0,0,0-2.368,1.074A3.963,3.963,0,0,0,147.276,59.131Z"/>
        <path d="M175.96,48.938V65.112h-2.844V48.938h-4.334V46.264h11.5v2.674Z"/>
        <path d="M181.861,59.082A5.909,5.909,0,0,1,183.7,54.7a6.5,6.5,0,0,1,9.009.012,6.365,6.365,0,0,1-.012,8.947,6.3,6.3,0,0,1-4.554,1.795,6.04,6.04,0,0,1-4.48-1.831A6.161,6.161,0,0,1,181.861,59.082Zm2.807.049a4.01,4.01,0,0,0,.953,2.819,3.7,3.7,0,0,0,5.151.013,4.463,4.463,0,0,0,0-5.542,3.654,3.654,0,0,0-5.127,0,3.822,3.822,0,0,0-.978,2.71Z"/>
        <path d="M201.446,53.222v6.824q0,2.953,2.331,2.955t2.332-2.955V53.222h2.746v6.885a7.635,7.635,0,0,1-.354,2.466,4.128,4.128,0,0,1-1.184,1.672,5.768,5.768,0,0,1-7.067,0,4.211,4.211,0,0,1-1.209-1.672,6.833,6.833,0,0,1-.342-2.466V53.222Z"/>
        <path d="M213.567,53.222h2.747v1.066a5.25,5.25,0,0,1,1.343-1.086,3.083,3.083,0,0,1,1.416-.3,4.445,4.445,0,0,1,2.27.707l-1.257,2.516a2.623,2.623,0,0,0-1.526-.562q-2.247,0-2.246,3.394v6.164h-2.747Z"/>
        <path d="M224.136,48.278a1.793,1.793,0,0,1,1.782-1.769,1.727,1.727,0,0,1,1.27.525,1.689,1.689,0,0,1,.525,1.257,1.727,1.727,0,0,1-.525,1.269,1.688,1.688,0,0,1-1.257.525,1.793,1.793,0,0,1-1.8-1.786v-.021Zm3.162,4.944v11.89h-2.747V53.222Z"/>
        <path d="M238.936,55.249l-2.27,1.209q-.537-1.1-1.331-1.1a.921.921,0,0,0-.647.251.84.84,0,0,0-.269.641q0,.684,1.587,1.354a9.455,9.455,0,0,1,2.942,1.735,2.956,2.956,0,0,1,.757,2.135,3.743,3.743,0,0,1-1.269,2.881,4.551,4.551,0,0,1-7.215-1.819l2.344-1.086a5.08,5.08,0,0,0,.745,1.086,1.7,1.7,0,0,0,1.2.465q1.392,0,1.391-1.27,0-.732-1.074-1.367-.415-.208-.83-.4t-.842-.4a5.168,5.168,0,0,1-1.688-1.176,2.892,2.892,0,0,1-.622-1.916,3.4,3.4,0,0,1,1.062-2.564,3.722,3.722,0,0,1,2.636-1.013A3.6,3.6,0,0,1,238.936,55.249Z"/>
        <path d="M243.421,53.222h2.746v1.1a5.712,5.712,0,0,1,1.355-1.123,3.3,3.3,0,0,1,1.5-.3,3.644,3.644,0,0,1,3.186,1.758,4.123,4.123,0,0,1,3.5-1.758q4.017,0,4.017,4.87v7.349h-2.758v-6.6a5.093,5.093,0,0,0-.415-2.418,1.505,1.505,0,0,0-1.4-.72,1.794,1.794,0,0,0-1.654.854,5.508,5.508,0,0,0-.519,2.746v6.141H250.22V58.549q0-3.174-1.831-3.174a1.839,1.839,0,0,0-1.691.866,5.424,5.424,0,0,0-.531,2.734v6.141h-2.746Z"/>
        <path d="M285.008,60.534h-8.069l-2.1,4.578h-3.064L281.1,45.081l9,20.031h-3.113Zm-1.16-2.673-2.8-6.409-2.93,6.409Z"/>
        <path d="M300.088,55.249l-2.27,1.209q-.538-1.1-1.331-1.1a.921.921,0,0,0-.647.251.837.837,0,0,0-.268.641q0,.684,1.587,1.354a9.455,9.455,0,0,1,2.942,1.735,2.961,2.961,0,0,1,.756,2.135,3.743,3.743,0,0,1-1.269,2.881,4.553,4.553,0,0,1-7.214-1.819l2.343-1.086a5.08,5.08,0,0,0,.745,1.086,1.7,1.7,0,0,0,1.2.465q1.392,0,1.392-1.27,0-.732-1.074-1.367-.414-.208-.83-.4t-.843-.4a5.138,5.138,0,0,1-1.688-1.176A2.887,2.887,0,0,1,293,56.472a3.4,3.4,0,0,1,1.062-2.564A3.723,3.723,0,0,1,296.7,52.9,3.6,3.6,0,0,1,300.088,55.249Z"/>
        <path d="M311.482,55.249l-2.27,1.209q-.537-1.1-1.331-1.1a.921.921,0,0,0-.647.251.837.837,0,0,0-.268.641q0,.684,1.587,1.354a9.455,9.455,0,0,1,2.942,1.735,2.961,2.961,0,0,1,.756,2.135,3.743,3.743,0,0,1-1.269,2.881,4.553,4.553,0,0,1-7.214-1.819l2.343-1.086a5.117,5.117,0,0,0,.745,1.086,1.7,1.7,0,0,0,1.2.465q1.392,0,1.392-1.27,0-.732-1.074-1.367-.416-.208-.83-.4t-.843-.4a5.138,5.138,0,0,1-1.688-1.176,2.887,2.887,0,0,1-.623-1.916,3.4,3.4,0,0,1,1.062-2.564,3.723,3.723,0,0,1,2.637-1.013A3.6,3.6,0,0,1,311.482,55.249Z"/>
        <path d="M315.406,59.082a5.909,5.909,0,0,1,1.843-4.382,6.5,6.5,0,0,1,9.009.012,6.365,6.365,0,0,1-.012,8.947,6.3,6.3,0,0,1-4.554,1.795,6.04,6.04,0,0,1-4.48-1.831A6.161,6.161,0,0,1,315.406,59.082Zm2.807.049a4.01,4.01,0,0,0,.953,2.819,3.7,3.7,0,0,0,5.151.013,4.463,4.463,0,0,0,0-5.542,3.654,3.654,0,0,0-5.127,0,3.826,3.826,0,0,0-.977,2.71Z"/>
        <path d="M341.5,53.735v3.653a6.716,6.716,0,0,0-1.684-1.576,3.276,3.276,0,0,0-1.722-.439,3.39,3.39,0,0,0-2.575,1.087,3.806,3.806,0,0,0-1.026,2.722,3.9,3.9,0,0,0,.989,2.747A3.34,3.34,0,0,0,338.03,63a3.486,3.486,0,0,0,1.746-.428,6.887,6.887,0,0,0,1.721-1.611v3.624a7.212,7.212,0,0,1-3.345.867,6.4,6.4,0,0,1-4.614-1.782,5.95,5.95,0,0,1-1.855-4.456,6.029,6.029,0,0,1,1.88-4.493,6.361,6.361,0,0,1,4.614-1.83A6.9,6.9,0,0,1,341.5,53.735Z"/>
        <path d="M344.993,48.278a1.793,1.793,0,0,1,1.782-1.769,1.727,1.727,0,0,1,1.27.525,1.689,1.689,0,0,1,.525,1.257,1.727,1.727,0,0,1-.525,1.269,1.688,1.688,0,0,1-1.257.525,1.793,1.793,0,0,1-1.8-1.786v-.021Zm3.162,4.944v11.89h-2.747V53.222Z"/>
        <path d="M361.648,53.222h2.759v11.89h-2.759V63.867a5.274,5.274,0,0,1-7.459.086c-.093-.09-.182-.184-.268-.281a6.635,6.635,0,0,1-1.6-4.541,6.426,6.426,0,0,1,1.6-4.456,5.156,5.156,0,0,1,4-1.782,5.057,5.057,0,0,1,3.723,1.709Zm-6.518,5.909a4.147,4.147,0,0,0,.915,2.783A3,3,0,0,0,358.414,63a3.149,3.149,0,0,0,2.465-1.051,4.517,4.517,0,0,0,0-5.518,3.107,3.107,0,0,0-2.441-1.061,3.038,3.038,0,0,0-2.368,1.074,3.963,3.963,0,0,0-.94,2.686Z"/>
        <path d="M371.956,55.788v9.326h-2.747V55.788h-1.171V53.224h1.171V48.866h2.747v4.358h2.136v2.564Z"/>
        <path d="M376.8,48.278a1.793,1.793,0,0,1,1.782-1.769,1.727,1.727,0,0,1,1.27.525,1.689,1.689,0,0,1,.525,1.257,1.727,1.727,0,0,1-.525,1.269,1.69,1.69,0,0,1-1.258.525,1.793,1.793,0,0,1-1.794-1.792Zm3.162,4.944v11.89H377.21V53.222Z"/>
        <path d="M384.124,59.082a5.909,5.909,0,0,1,1.843-4.382,6.5,6.5,0,0,1,9.009.012,6.364,6.364,0,0,1-.012,8.947,6.3,6.3,0,0,1-4.553,1.795,6.04,6.04,0,0,1-4.48-1.831A6.156,6.156,0,0,1,384.124,59.082Zm2.808.049a4.01,4.01,0,0,0,.952,2.819,3.7,3.7,0,0,0,5.151.013,4.46,4.46,0,0,0,0-5.542,3.654,3.654,0,0,0-5.127,0A3.825,3.825,0,0,0,386.932,59.131Z"/>
        <path d="M400.967,53.222h2.759v1.1a4.5,4.5,0,0,1,3.241-1.434,4.1,4.1,0,0,1,3.235,1.306,5.344,5.344,0,0,1,1,3.626v7.287h-2.759V58.466a4.359,4.359,0,0,0-.488-2.429,1.969,1.969,0,0,0-1.733-.684,2.117,2.117,0,0,0-1.941.9,6.2,6.2,0,0,0-.562,3.112V65.1h-2.752Z"/>
  </g>
</svg>
